<svg width="200" height="200" viewBox="0 0 200 200" fill="none" xmlns="http://www.w3.org/2000/svg">
<rect width="200" height="200" fill="white"/>
<mask id="mask0_26_6474" style="mask-type:alpha" maskUnits="userSpaceOnUse" x="10" y="100" width="74" height="8">
<rect x="10" y="100" width="74" height="8" rx="4" fill="#D9D9D9"/>
</mask>
<g mask="url(#mask0_26_6474)">
<line y1="-0.33" x2="203.821" y2="-0.33" transform="matrix(0.707711 -0.706502 0.707711 0.706502 -96 203)" stroke="#909BCB" stroke-width="0.66"/>
<line y1="-0.33" x2="203.821" y2="-0.33" transform="matrix(0.707711 -0.706502 0.707711 0.706502 -92.3014 203)" stroke="#909BCB" stroke-width="0.66"/>
<line y1="-0.33" x2="203.821" y2="-0.33" transform="matrix(0.707711 -0.706502 0.707711 0.706502 -88.6028 203)" stroke="#909BCB" stroke-width="0.66"/>
<line y1="-0.33" x2="203.821" y2="-0.33" transform="matrix(0.707711 -0.706502 0.707711 0.706502 -84.9041 203)" stroke="#909BCB" stroke-width="0.66"/>
<line y1="-0.33" x2="203.821" y2="-0.33" transform="matrix(0.707711 -0.706502 0.707711 0.706502 -81.2055 203)" stroke="#909BCB" stroke-width="0.66"/>
<line y1="-0.33" x2="203.821" y2="-0.33" transform="matrix(0.707711 -0.706502 0.707711 0.706502 -77.5068 203)" stroke="#909BCB" stroke-width="0.66"/>
<line y1="-0.33" x2="203.821" y2="-0.33" transform="matrix(0.707711 -0.706502 0.707711 0.706502 -73.8082 203)" stroke="#909BCB" stroke-width="0.66"/>
<line y1="-0.33" x2="203.821" y2="-0.33" transform="matrix(0.707711 -0.706502 0.707711 0.706502 -70.1096 203)" stroke="#909BCB" stroke-width="0.66"/>
<line y1="-0.33" x2="203.821" y2="-0.33" transform="matrix(0.707711 -0.706502 0.707711 0.706502 -66.4109 203)" stroke="#909BCB" stroke-width="0.66"/>
<line y1="-0.33" x2="203.821" y2="-0.33" transform="matrix(0.707711 -0.706502 0.707711 0.706502 -62.7123 203)" stroke="#909BCB" stroke-width="0.66"/>
<line y1="-0.33" x2="203.821" y2="-0.33" transform="matrix(0.707711 -0.706502 0.707711 0.706502 -59.0137 203)" stroke="#909BCB" stroke-width="0.66"/>
<line y1="-0.33" x2="203.821" y2="-0.33" transform="matrix(0.707711 -0.706502 0.707711 0.706502 -55.3151 203)" stroke="#909BCB" stroke-width="0.66"/>
<line y1="-0.33" x2="203.821" y2="-0.33" transform="matrix(0.707711 -0.706502 0.707711 0.706502 -51.6164 203)" stroke="#909BCB" stroke-width="0.66"/>
<line y1="-0.33" x2="203.821" y2="-0.33" transform="matrix(0.707711 -0.706502 0.707711 0.706502 -47.9178 203)" stroke="#909BCB" stroke-width="0.66"/>
<line y1="-0.33" x2="203.821" y2="-0.33" transform="matrix(0.707711 -0.706502 0.707711 0.706502 -44.2192 203)" stroke="#909BCB" stroke-width="0.66"/>
<line y1="-0.33" x2="203.821" y2="-0.33" transform="matrix(0.707711 -0.706502 0.707711 0.706502 -40.5205 203)" stroke="#909BCB" stroke-width="0.66"/>
<line y1="-0.33" x2="203.821" y2="-0.33" transform="matrix(0.707711 -0.706502 0.707711 0.706502 -36.8219 203)" stroke="#909BCB" stroke-width="0.66"/>
<line y1="-0.33" x2="203.821" y2="-0.33" transform="matrix(0.707711 -0.706502 0.707711 0.706502 -33.1233 203)" stroke="#909BCB" stroke-width="0.66"/>
<line y1="-0.33" x2="203.821" y2="-0.33" transform="matrix(0.707711 -0.706502 0.707711 0.706502 -29.4247 203)" stroke="#909BCB" stroke-width="0.66"/>
<line y1="-0.33" x2="203.821" y2="-0.33" transform="matrix(0.707711 -0.706502 0.707711 0.706502 -25.726 203)" stroke="#909BCB" stroke-width="0.66"/>
<line y1="-0.33" x2="203.821" y2="-0.33" transform="matrix(0.707711 -0.706502 0.707711 0.706502 -22.0274 203)" stroke="#909BCB" stroke-width="0.66"/>
<line y1="-0.33" x2="203.821" y2="-0.33" transform="matrix(0.707711 -0.706502 0.707711 0.706502 -18.3288 203)" stroke="#909BCB" stroke-width="0.66"/>
<line y1="-0.33" x2="203.821" y2="-0.33" transform="matrix(0.707711 -0.706502 0.707711 0.706502 -14.6301 203)" stroke="#909BCB" stroke-width="0.66"/>
<line y1="-0.33" x2="203.821" y2="-0.33" transform="matrix(0.707711 -0.706502 0.707711 0.706502 -10.9315 203)" stroke="#909BCB" stroke-width="0.66"/>
<line y1="-0.33" x2="203.821" y2="-0.33" transform="matrix(0.707711 -0.706502 0.707711 0.706502 -7.23288 203)" stroke="#909BCB" stroke-width="0.66"/>
<line y1="-0.33" x2="203.821" y2="-0.33" transform="matrix(0.707711 -0.706502 0.707711 0.706502 -3.53424 203)" stroke="#909BCB" stroke-width="0.66"/>
<line y1="-0.33" x2="203.821" y2="-0.33" transform="matrix(0.707711 -0.706502 0.707711 0.706502 0.164368 203)" stroke="#909BCB" stroke-width="0.66"/>
<line y1="-0.33" x2="203.821" y2="-0.33" transform="matrix(0.707711 -0.706502 0.707711 0.706502 3.86301 203)" stroke="#909BCB" stroke-width="0.66"/>
<line y1="-0.33" x2="203.821" y2="-0.33" transform="matrix(0.707711 -0.706502 0.707711 0.706502 7.56165 203)" stroke="#909BCB" stroke-width="0.66"/>
<line y1="-0.33" x2="203.821" y2="-0.33" transform="matrix(0.707711 -0.706502 0.707711 0.706502 11.2603 203)" stroke="#909BCB" stroke-width="0.66"/>
<line y1="-0.33" x2="203.821" y2="-0.33" transform="matrix(0.707711 -0.706502 0.707711 0.706502 14.9589 203)" stroke="#909BCB" stroke-width="0.66"/>
<line y1="-0.33" x2="203.821" y2="-0.33" transform="matrix(0.707711 -0.706502 0.707711 0.706502 18.6575 203)" stroke="#909BCB" stroke-width="0.66"/>
<line y1="-0.33" x2="203.821" y2="-0.33" transform="matrix(0.707711 -0.706502 0.707711 0.706502 22.3562 203)" stroke="#909BCB" stroke-width="0.66"/>
<line y1="-0.33" x2="203.821" y2="-0.33" transform="matrix(0.707711 -0.706502 0.707711 0.706502 26.0548 203)" stroke="#909BCB" stroke-width="0.66"/>
<line y1="-0.33" x2="203.821" y2="-0.33" transform="matrix(0.707711 -0.706502 0.707711 0.706502 29.7534 203)" stroke="#909BCB" stroke-width="0.66"/>
<line y1="-0.33" x2="203.821" y2="-0.33" transform="matrix(0.707711 -0.706502 0.707711 0.706502 33.4521 203)" stroke="#909BCB" stroke-width="0.66"/>
<line y1="-0.33" x2="203.821" y2="-0.33" transform="matrix(0.707711 -0.706502 0.707711 0.706502 37.1507 203)" stroke="#909BCB" stroke-width="0.66"/>
<line y1="-0.33" x2="203.821" y2="-0.33" transform="matrix(0.707711 -0.706502 0.707711 0.706502 40.8493 203)" stroke="#909BCB" stroke-width="0.66"/>
<line y1="-0.33" x2="203.821" y2="-0.33" transform="matrix(0.707711 -0.706502 0.707711 0.706502 44.5479 203)" stroke="#909BCB" stroke-width="0.66"/>
<line y1="-0.33" x2="203.821" y2="-0.33" transform="matrix(0.707711 -0.706502 0.707711 0.706502 48.2466 203)" stroke="#909BCB" stroke-width="0.66"/>
<line y1="-0.33" x2="203.821" y2="-0.33" transform="matrix(0.707711 -0.706502 0.707711 0.706502 51.9452 203)" stroke="#909BCB" stroke-width="0.66"/>
<line y1="-0.33" x2="203.821" y2="-0.33" transform="matrix(0.707711 -0.706502 0.707711 0.706502 55.6439 203)" stroke="#909BCB" stroke-width="0.66"/>
<line y1="-0.33" x2="203.821" y2="-0.33" transform="matrix(0.707711 -0.706502 0.707711 0.706502 59.3425 203)" stroke="#909BCB" stroke-width="0.66"/>
<line y1="-0.33" x2="203.821" y2="-0.33" transform="matrix(0.707711 -0.706502 0.707711 0.706502 63.0411 203)" stroke="#909BCB" stroke-width="0.66"/>
<line y1="-0.33" x2="203.821" y2="-0.33" transform="matrix(0.707711 -0.706502 0.707711 0.706502 66.7397 203)" stroke="#909BCB" stroke-width="0.66"/>
<line y1="-0.33" x2="203.821" y2="-0.33" transform="matrix(0.707711 -0.706502 0.707711 0.706502 70.4384 203)" stroke="#909BCB" stroke-width="0.66"/>
<line y1="-0.33" x2="203.821" y2="-0.33" transform="matrix(0.707711 -0.706502 0.707711 0.706502 74.137 203)" stroke="#909BCB" stroke-width="0.66"/>
<line y1="-0.33" x2="203.821" y2="-0.33" transform="matrix(0.707711 -0.706502 0.707711 0.706502 77.8356 203)" stroke="#909BCB" stroke-width="0.66"/>
<line y1="-0.33" x2="203.821" y2="-0.33" transform="matrix(0.707711 -0.706502 0.707711 0.706502 81.5342 203)" stroke="#909BCB" stroke-width="0.66"/>
</g>
<mask id="mask1_26_6474" style="mask-type:alpha" maskUnits="userSpaceOnUse" x="10" y="132" width="74" height="8">
<rect x="10" y="132" width="74" height="8" rx="4" fill="#D9D9D9"/>
</mask>
<g mask="url(#mask1_26_6474)">
<line y1="-0.33" x2="203.821" y2="-0.33" transform="matrix(0.707711 -0.706502 0.707711 0.706502 -96 235)" stroke="#909BCB" stroke-width="0.66"/>
<line y1="-0.33" x2="203.821" y2="-0.33" transform="matrix(0.707711 -0.706502 0.707711 0.706502 -92.3014 235)" stroke="#909BCB" stroke-width="0.66"/>
<line y1="-0.33" x2="203.821" y2="-0.33" transform="matrix(0.707711 -0.706502 0.707711 0.706502 -88.6028 235)" stroke="#909BCB" stroke-width="0.66"/>
<line y1="-0.33" x2="203.821" y2="-0.33" transform="matrix(0.707711 -0.706502 0.707711 0.706502 -84.9041 235)" stroke="#909BCB" stroke-width="0.66"/>
<line y1="-0.33" x2="203.821" y2="-0.33" transform="matrix(0.707711 -0.706502 0.707711 0.706502 -81.2055 235)" stroke="#909BCB" stroke-width="0.66"/>
<line y1="-0.33" x2="203.821" y2="-0.33" transform="matrix(0.707711 -0.706502 0.707711 0.706502 -77.5068 235)" stroke="#909BCB" stroke-width="0.66"/>
<line y1="-0.33" x2="203.821" y2="-0.33" transform="matrix(0.707711 -0.706502 0.707711 0.706502 -73.8082 235)" stroke="#909BCB" stroke-width="0.66"/>
<line y1="-0.33" x2="203.821" y2="-0.33" transform="matrix(0.707711 -0.706502 0.707711 0.706502 -70.1096 235)" stroke="#909BCB" stroke-width="0.66"/>
<line y1="-0.33" x2="203.821" y2="-0.33" transform="matrix(0.707711 -0.706502 0.707711 0.706502 -66.4109 235)" stroke="#909BCB" stroke-width="0.66"/>
<line y1="-0.33" x2="203.821" y2="-0.33" transform="matrix(0.707711 -0.706502 0.707711 0.706502 -62.7123 235)" stroke="#909BCB" stroke-width="0.66"/>
<line y1="-0.33" x2="203.821" y2="-0.33" transform="matrix(0.707711 -0.706502 0.707711 0.706502 -59.0137 235)" stroke="#909BCB" stroke-width="0.66"/>
<line y1="-0.33" x2="203.821" y2="-0.33" transform="matrix(0.707711 -0.706502 0.707711 0.706502 -55.3151 235)" stroke="#909BCB" stroke-width="0.66"/>
<line y1="-0.33" x2="203.821" y2="-0.33" transform="matrix(0.707711 -0.706502 0.707711 0.706502 -51.6164 235)" stroke="#909BCB" stroke-width="0.66"/>
<line y1="-0.33" x2="203.821" y2="-0.33" transform="matrix(0.707711 -0.706502 0.707711 0.706502 -47.9178 235)" stroke="#909BCB" stroke-width="0.66"/>
<line y1="-0.33" x2="203.821" y2="-0.33" transform="matrix(0.707711 -0.706502 0.707711 0.706502 -44.2192 235)" stroke="#909BCB" stroke-width="0.66"/>
<line y1="-0.33" x2="203.821" y2="-0.33" transform="matrix(0.707711 -0.706502 0.707711 0.706502 -40.5205 235)" stroke="#909BCB" stroke-width="0.66"/>
<line y1="-0.33" x2="203.821" y2="-0.33" transform="matrix(0.707711 -0.706502 0.707711 0.706502 -36.8219 235)" stroke="#909BCB" stroke-width="0.66"/>
<line y1="-0.33" x2="203.821" y2="-0.33" transform="matrix(0.707711 -0.706502 0.707711 0.706502 -33.1233 235)" stroke="#909BCB" stroke-width="0.66"/>
<line y1="-0.33" x2="203.821" y2="-0.33" transform="matrix(0.707711 -0.706502 0.707711 0.706502 -29.4247 235)" stroke="#909BCB" stroke-width="0.66"/>
<line y1="-0.33" x2="203.821" y2="-0.33" transform="matrix(0.707711 -0.706502 0.707711 0.706502 -25.726 235)" stroke="#909BCB" stroke-width="0.66"/>
<line y1="-0.33" x2="203.821" y2="-0.33" transform="matrix(0.707711 -0.706502 0.707711 0.706502 -22.0274 235)" stroke="#909BCB" stroke-width="0.66"/>
<line y1="-0.33" x2="203.821" y2="-0.33" transform="matrix(0.707711 -0.706502 0.707711 0.706502 -18.3288 235)" stroke="#909BCB" stroke-width="0.66"/>
<line y1="-0.33" x2="203.821" y2="-0.33" transform="matrix(0.707711 -0.706502 0.707711 0.706502 -14.6301 235)" stroke="#909BCB" stroke-width="0.66"/>
<line y1="-0.33" x2="203.821" y2="-0.33" transform="matrix(0.707711 -0.706502 0.707711 0.706502 -10.9315 235)" stroke="#909BCB" stroke-width="0.66"/>
<line y1="-0.33" x2="203.821" y2="-0.33" transform="matrix(0.707711 -0.706502 0.707711 0.706502 -7.23288 235)" stroke="#909BCB" stroke-width="0.66"/>
<line y1="-0.33" x2="203.821" y2="-0.33" transform="matrix(0.707711 -0.706502 0.707711 0.706502 -3.53424 235)" stroke="#909BCB" stroke-width="0.66"/>
<line y1="-0.33" x2="203.821" y2="-0.33" transform="matrix(0.707711 -0.706502 0.707711 0.706502 0.164368 235)" stroke="#909BCB" stroke-width="0.66"/>
<line y1="-0.33" x2="203.821" y2="-0.33" transform="matrix(0.707711 -0.706502 0.707711 0.706502 3.86301 235)" stroke="#909BCB" stroke-width="0.66"/>
<line y1="-0.33" x2="203.821" y2="-0.33" transform="matrix(0.707711 -0.706502 0.707711 0.706502 7.56165 235)" stroke="#909BCB" stroke-width="0.66"/>
<line y1="-0.33" x2="203.821" y2="-0.33" transform="matrix(0.707711 -0.706502 0.707711 0.706502 11.2603 235)" stroke="#909BCB" stroke-width="0.66"/>
<line y1="-0.33" x2="203.821" y2="-0.33" transform="matrix(0.707711 -0.706502 0.707711 0.706502 14.9589 235)" stroke="#909BCB" stroke-width="0.66"/>
<line y1="-0.33" x2="203.821" y2="-0.33" transform="matrix(0.707711 -0.706502 0.707711 0.706502 18.6575 235)" stroke="#909BCB" stroke-width="0.66"/>
<line y1="-0.33" x2="203.821" y2="-0.33" transform="matrix(0.707711 -0.706502 0.707711 0.706502 22.3562 235)" stroke="#909BCB" stroke-width="0.66"/>
<line y1="-0.33" x2="203.821" y2="-0.33" transform="matrix(0.707711 -0.706502 0.707711 0.706502 26.0548 235)" stroke="#909BCB" stroke-width="0.66"/>
<line y1="-0.33" x2="203.821" y2="-0.33" transform="matrix(0.707711 -0.706502 0.707711 0.706502 29.7534 235)" stroke="#909BCB" stroke-width="0.66"/>
<line y1="-0.33" x2="203.821" y2="-0.33" transform="matrix(0.707711 -0.706502 0.707711 0.706502 33.4521 235)" stroke="#909BCB" stroke-width="0.66"/>
<line y1="-0.33" x2="203.821" y2="-0.33" transform="matrix(0.707711 -0.706502 0.707711 0.706502 37.1507 235)" stroke="#909BCB" stroke-width="0.66"/>
<line y1="-0.33" x2="203.821" y2="-0.33" transform="matrix(0.707711 -0.706502 0.707711 0.706502 40.8493 235)" stroke="#909BCB" stroke-width="0.66"/>
<line y1="-0.33" x2="203.821" y2="-0.33" transform="matrix(0.707711 -0.706502 0.707711 0.706502 44.5479 235)" stroke="#909BCB" stroke-width="0.66"/>
<line y1="-0.33" x2="203.821" y2="-0.33" transform="matrix(0.707711 -0.706502 0.707711 0.706502 48.2466 235)" stroke="#909BCB" stroke-width="0.66"/>
<line y1="-0.33" x2="203.821" y2="-0.33" transform="matrix(0.707711 -0.706502 0.707711 0.706502 51.9452 235)" stroke="#909BCB" stroke-width="0.66"/>
<line y1="-0.33" x2="203.821" y2="-0.33" transform="matrix(0.707711 -0.706502 0.707711 0.706502 55.6439 235)" stroke="#909BCB" stroke-width="0.66"/>
<line y1="-0.33" x2="203.821" y2="-0.33" transform="matrix(0.707711 -0.706502 0.707711 0.706502 59.3425 235)" stroke="#909BCB" stroke-width="0.66"/>
<line y1="-0.33" x2="203.821" y2="-0.33" transform="matrix(0.707711 -0.706502 0.707711 0.706502 63.0411 235)" stroke="#909BCB" stroke-width="0.66"/>
<line y1="-0.33" x2="203.821" y2="-0.33" transform="matrix(0.707711 -0.706502 0.707711 0.706502 66.7397 235)" stroke="#909BCB" stroke-width="0.66"/>
<line y1="-0.33" x2="203.821" y2="-0.33" transform="matrix(0.707711 -0.706502 0.707711 0.706502 70.4384 235)" stroke="#909BCB" stroke-width="0.66"/>
<line y1="-0.33" x2="203.821" y2="-0.33" transform="matrix(0.707711 -0.706502 0.707711 0.706502 74.137 235)" stroke="#909BCB" stroke-width="0.66"/>
<line y1="-0.33" x2="203.821" y2="-0.33" transform="matrix(0.707711 -0.706502 0.707711 0.706502 77.8356 235)" stroke="#909BCB" stroke-width="0.66"/>
<line y1="-0.33" x2="203.821" y2="-0.33" transform="matrix(0.707711 -0.706502 0.707711 0.706502 81.5342 235)" stroke="#909BCB" stroke-width="0.66"/>
</g>
<mask id="mask2_26_6474" style="mask-type:alpha" maskUnits="userSpaceOnUse" x="10" y="164" width="74" height="8">
<rect x="10" y="164" width="74" height="8" rx="4" fill="#D9D9D9"/>
</mask>
<g mask="url(#mask2_26_6474)">
<line y1="-0.33" x2="203.821" y2="-0.33" transform="matrix(0.707711 -0.706502 0.707711 0.706502 -96 267)" stroke="#909BCB" stroke-width="0.66"/>
<line y1="-0.33" x2="203.821" y2="-0.33" transform="matrix(0.707711 -0.706502 0.707711 0.706502 -92.3014 267)" stroke="#909BCB" stroke-width="0.66"/>
<line y1="-0.33" x2="203.821" y2="-0.33" transform="matrix(0.707711 -0.706502 0.707711 0.706502 -88.6028 267)" stroke="#909BCB" stroke-width="0.66"/>
<line y1="-0.33" x2="203.821" y2="-0.33" transform="matrix(0.707711 -0.706502 0.707711 0.706502 -84.9041 267)" stroke="#909BCB" stroke-width="0.66"/>
<line y1="-0.33" x2="203.821" y2="-0.33" transform="matrix(0.707711 -0.706502 0.707711 0.706502 -81.2055 267)" stroke="#909BCB" stroke-width="0.66"/>
<line y1="-0.33" x2="203.821" y2="-0.33" transform="matrix(0.707711 -0.706502 0.707711 0.706502 -77.5068 267)" stroke="#909BCB" stroke-width="0.66"/>
<line y1="-0.33" x2="203.821" y2="-0.33" transform="matrix(0.707711 -0.706502 0.707711 0.706502 -73.8082 267)" stroke="#909BCB" stroke-width="0.66"/>
<line y1="-0.33" x2="203.821" y2="-0.33" transform="matrix(0.707711 -0.706502 0.707711 0.706502 -70.1096 267)" stroke="#909BCB" stroke-width="0.66"/>
<line y1="-0.33" x2="203.821" y2="-0.33" transform="matrix(0.707711 -0.706502 0.707711 0.706502 -66.4109 267)" stroke="#909BCB" stroke-width="0.66"/>
<line y1="-0.33" x2="203.821" y2="-0.33" transform="matrix(0.707711 -0.706502 0.707711 0.706502 -62.7123 267)" stroke="#909BCB" stroke-width="0.66"/>
<line y1="-0.33" x2="203.821" y2="-0.33" transform="matrix(0.707711 -0.706502 0.707711 0.706502 -59.0137 267)" stroke="#909BCB" stroke-width="0.66"/>
<line y1="-0.33" x2="203.821" y2="-0.33" transform="matrix(0.707711 -0.706502 0.707711 0.706502 -55.3151 267)" stroke="#909BCB" stroke-width="0.66"/>
<line y1="-0.33" x2="203.821" y2="-0.33" transform="matrix(0.707711 -0.706502 0.707711 0.706502 -51.6164 267)" stroke="#909BCB" stroke-width="0.66"/>
<line y1="-0.33" x2="203.821" y2="-0.33" transform="matrix(0.707711 -0.706502 0.707711 0.706502 -47.9178 267)" stroke="#909BCB" stroke-width="0.66"/>
<line y1="-0.33" x2="203.821" y2="-0.33" transform="matrix(0.707711 -0.706502 0.707711 0.706502 -44.2192 267)" stroke="#909BCB" stroke-width="0.66"/>
<line y1="-0.33" x2="203.821" y2="-0.33" transform="matrix(0.707711 -0.706502 0.707711 0.706502 -40.5205 267)" stroke="#909BCB" stroke-width="0.66"/>
<line y1="-0.33" x2="203.821" y2="-0.33" transform="matrix(0.707711 -0.706502 0.707711 0.706502 -36.8219 267)" stroke="#909BCB" stroke-width="0.66"/>
<line y1="-0.33" x2="203.821" y2="-0.33" transform="matrix(0.707711 -0.706502 0.707711 0.706502 -33.1233 267)" stroke="#909BCB" stroke-width="0.66"/>
<line y1="-0.33" x2="203.821" y2="-0.33" transform="matrix(0.707711 -0.706502 0.707711 0.706502 -29.4247 267)" stroke="#909BCB" stroke-width="0.66"/>
<line y1="-0.33" x2="203.821" y2="-0.33" transform="matrix(0.707711 -0.706502 0.707711 0.706502 -25.726 267)" stroke="#909BCB" stroke-width="0.66"/>
<line y1="-0.33" x2="203.821" y2="-0.33" transform="matrix(0.707711 -0.706502 0.707711 0.706502 -22.0274 267)" stroke="#909BCB" stroke-width="0.66"/>
<line y1="-0.33" x2="203.821" y2="-0.33" transform="matrix(0.707711 -0.706502 0.707711 0.706502 -18.3288 267)" stroke="#909BCB" stroke-width="0.66"/>
<line y1="-0.33" x2="203.821" y2="-0.33" transform="matrix(0.707711 -0.706502 0.707711 0.706502 -14.6301 267)" stroke="#909BCB" stroke-width="0.66"/>
<line y1="-0.33" x2="203.821" y2="-0.33" transform="matrix(0.707711 -0.706502 0.707711 0.706502 -10.9315 267)" stroke="#909BCB" stroke-width="0.66"/>
<line y1="-0.33" x2="203.821" y2="-0.33" transform="matrix(0.707711 -0.706502 0.707711 0.706502 -7.23288 267)" stroke="#909BCB" stroke-width="0.66"/>
<line y1="-0.33" x2="203.821" y2="-0.33" transform="matrix(0.707711 -0.706502 0.707711 0.706502 -3.53424 267)" stroke="#909BCB" stroke-width="0.66"/>
<line y1="-0.33" x2="203.821" y2="-0.33" transform="matrix(0.707711 -0.706502 0.707711 0.706502 0.164368 267)" stroke="#909BCB" stroke-width="0.66"/>
<line y1="-0.33" x2="203.821" y2="-0.33" transform="matrix(0.707711 -0.706502 0.707711 0.706502 3.86301 267)" stroke="#909BCB" stroke-width="0.66"/>
<line y1="-0.33" x2="203.821" y2="-0.33" transform="matrix(0.707711 -0.706502 0.707711 0.706502 7.56165 267)" stroke="#909BCB" stroke-width="0.66"/>
<line y1="-0.33" x2="203.821" y2="-0.33" transform="matrix(0.707711 -0.706502 0.707711 0.706502 11.2603 267)" stroke="#909BCB" stroke-width="0.66"/>
<line y1="-0.33" x2="203.821" y2="-0.33" transform="matrix(0.707711 -0.706502 0.707711 0.706502 14.9589 267)" stroke="#909BCB" stroke-width="0.66"/>
<line y1="-0.33" x2="203.821" y2="-0.33" transform="matrix(0.707711 -0.706502 0.707711 0.706502 18.6575 267)" stroke="#909BCB" stroke-width="0.66"/>
<line y1="-0.33" x2="203.821" y2="-0.33" transform="matrix(0.707711 -0.706502 0.707711 0.706502 22.3562 267)" stroke="#909BCB" stroke-width="0.66"/>
<line y1="-0.33" x2="203.821" y2="-0.33" transform="matrix(0.707711 -0.706502 0.707711 0.706502 26.0548 267)" stroke="#909BCB" stroke-width="0.66"/>
<line y1="-0.33" x2="203.821" y2="-0.33" transform="matrix(0.707711 -0.706502 0.707711 0.706502 29.7534 267)" stroke="#909BCB" stroke-width="0.66"/>
<line y1="-0.33" x2="203.821" y2="-0.33" transform="matrix(0.707711 -0.706502 0.707711 0.706502 33.4521 267)" stroke="#909BCB" stroke-width="0.66"/>
<line y1="-0.33" x2="203.821" y2="-0.33" transform="matrix(0.707711 -0.706502 0.707711 0.706502 37.1507 267)" stroke="#909BCB" stroke-width="0.66"/>
<line y1="-0.33" x2="203.821" y2="-0.33" transform="matrix(0.707711 -0.706502 0.707711 0.706502 40.8493 267)" stroke="#909BCB" stroke-width="0.66"/>
<line y1="-0.33" x2="203.821" y2="-0.33" transform="matrix(0.707711 -0.706502 0.707711 0.706502 44.5479 267)" stroke="#909BCB" stroke-width="0.66"/>
<line y1="-0.33" x2="203.821" y2="-0.33" transform="matrix(0.707711 -0.706502 0.707711 0.706502 48.2466 267)" stroke="#909BCB" stroke-width="0.66"/>
<line y1="-0.33" x2="203.821" y2="-0.33" transform="matrix(0.707711 -0.706502 0.707711 0.706502 51.9452 267)" stroke="#909BCB" stroke-width="0.66"/>
<line y1="-0.33" x2="203.821" y2="-0.33" transform="matrix(0.707711 -0.706502 0.707711 0.706502 55.6439 267)" stroke="#909BCB" stroke-width="0.66"/>
<line y1="-0.33" x2="203.821" y2="-0.33" transform="matrix(0.707711 -0.706502 0.707711 0.706502 59.3425 267)" stroke="#909BCB" stroke-width="0.66"/>
<line y1="-0.33" x2="203.821" y2="-0.33" transform="matrix(0.707711 -0.706502 0.707711 0.706502 63.0411 267)" stroke="#909BCB" stroke-width="0.66"/>
<line y1="-0.33" x2="203.821" y2="-0.33" transform="matrix(0.707711 -0.706502 0.707711 0.706502 66.7397 267)" stroke="#909BCB" stroke-width="0.66"/>
<line y1="-0.33" x2="203.821" y2="-0.33" transform="matrix(0.707711 -0.706502 0.707711 0.706502 70.4384 267)" stroke="#909BCB" stroke-width="0.66"/>
<line y1="-0.33" x2="203.821" y2="-0.33" transform="matrix(0.707711 -0.706502 0.707711 0.706502 74.137 267)" stroke="#909BCB" stroke-width="0.66"/>
<line y1="-0.33" x2="203.821" y2="-0.33" transform="matrix(0.707711 -0.706502 0.707711 0.706502 77.8356 267)" stroke="#909BCB" stroke-width="0.66"/>
<line y1="-0.33" x2="203.821" y2="-0.33" transform="matrix(0.707711 -0.706502 0.707711 0.706502 81.5342 267)" stroke="#909BCB" stroke-width="0.66"/>
</g>
<mask id="mask3_26_6474" style="mask-type:alpha" maskUnits="userSpaceOnUse" x="10" y="116" width="45" height="8">
<rect x="10" y="116" width="45" height="8" rx="4" fill="#D9D9D9"/>
</mask>
<g mask="url(#mask3_26_6474)">
<line y1="-0.33" x2="203.821" y2="-0.33" transform="matrix(0.707711 -0.706502 0.707711 0.706502 -96 219)" stroke="#909BCB" stroke-opacity="0.5" stroke-width="0.66"/>
<line y1="-0.33" x2="203.821" y2="-0.33" transform="matrix(0.707711 -0.706502 0.707711 0.706502 -92.3014 219)" stroke="#909BCB" stroke-opacity="0.5" stroke-width="0.66"/>
<line y1="-0.33" x2="203.821" y2="-0.33" transform="matrix(0.707711 -0.706502 0.707711 0.706502 -88.6028 219)" stroke="#909BCB" stroke-opacity="0.5" stroke-width="0.66"/>
<line y1="-0.33" x2="203.821" y2="-0.33" transform="matrix(0.707711 -0.706502 0.707711 0.706502 -84.9041 219)" stroke="#909BCB" stroke-opacity="0.5" stroke-width="0.66"/>
<line y1="-0.33" x2="203.821" y2="-0.33" transform="matrix(0.707711 -0.706502 0.707711 0.706502 -81.2055 219)" stroke="#909BCB" stroke-opacity="0.5" stroke-width="0.66"/>
<line y1="-0.33" x2="203.821" y2="-0.33" transform="matrix(0.707711 -0.706502 0.707711 0.706502 -77.5068 219)" stroke="#909BCB" stroke-opacity="0.5" stroke-width="0.66"/>
<line y1="-0.33" x2="203.821" y2="-0.33" transform="matrix(0.707711 -0.706502 0.707711 0.706502 -73.8082 219)" stroke="#909BCB" stroke-opacity="0.5" stroke-width="0.66"/>
<line y1="-0.33" x2="203.821" y2="-0.33" transform="matrix(0.707711 -0.706502 0.707711 0.706502 -70.1096 219)" stroke="#909BCB" stroke-opacity="0.5" stroke-width="0.66"/>
<line y1="-0.33" x2="203.821" y2="-0.33" transform="matrix(0.707711 -0.706502 0.707711 0.706502 -66.4109 219)" stroke="#909BCB" stroke-opacity="0.5" stroke-width="0.66"/>
<line y1="-0.33" x2="203.821" y2="-0.33" transform="matrix(0.707711 -0.706502 0.707711 0.706502 -62.7123 219)" stroke="#909BCB" stroke-opacity="0.5" stroke-width="0.66"/>
<line y1="-0.33" x2="203.821" y2="-0.33" transform="matrix(0.707711 -0.706502 0.707711 0.706502 -59.0137 219)" stroke="#909BCB" stroke-opacity="0.5" stroke-width="0.66"/>
<line y1="-0.33" x2="203.821" y2="-0.33" transform="matrix(0.707711 -0.706502 0.707711 0.706502 -55.3151 219)" stroke="#909BCB" stroke-opacity="0.5" stroke-width="0.66"/>
<line y1="-0.33" x2="203.821" y2="-0.33" transform="matrix(0.707711 -0.706502 0.707711 0.706502 -51.6164 219)" stroke="#909BCB" stroke-opacity="0.5" stroke-width="0.66"/>
<line y1="-0.33" x2="203.821" y2="-0.33" transform="matrix(0.707711 -0.706502 0.707711 0.706502 -47.9178 219)" stroke="#909BCB" stroke-opacity="0.5" stroke-width="0.66"/>
<line y1="-0.33" x2="203.821" y2="-0.33" transform="matrix(0.707711 -0.706502 0.707711 0.706502 -44.2192 219)" stroke="#909BCB" stroke-opacity="0.5" stroke-width="0.66"/>
<line y1="-0.33" x2="203.821" y2="-0.33" transform="matrix(0.707711 -0.706502 0.707711 0.706502 -40.5205 219)" stroke="#909BCB" stroke-opacity="0.5" stroke-width="0.66"/>
<line y1="-0.33" x2="203.821" y2="-0.33" transform="matrix(0.707711 -0.706502 0.707711 0.706502 -36.8219 219)" stroke="#909BCB" stroke-opacity="0.5" stroke-width="0.66"/>
<line y1="-0.33" x2="203.821" y2="-0.33" transform="matrix(0.707711 -0.706502 0.707711 0.706502 -33.1233 219)" stroke="#909BCB" stroke-opacity="0.5" stroke-width="0.66"/>
<line y1="-0.33" x2="203.821" y2="-0.33" transform="matrix(0.707711 -0.706502 0.707711 0.706502 -29.4247 219)" stroke="#909BCB" stroke-opacity="0.5" stroke-width="0.66"/>
<line y1="-0.33" x2="203.821" y2="-0.33" transform="matrix(0.707711 -0.706502 0.707711 0.706502 -25.726 219)" stroke="#909BCB" stroke-opacity="0.5" stroke-width="0.66"/>
<line y1="-0.33" x2="203.821" y2="-0.33" transform="matrix(0.707711 -0.706502 0.707711 0.706502 -22.0274 219)" stroke="#909BCB" stroke-opacity="0.5" stroke-width="0.66"/>
<line y1="-0.33" x2="203.821" y2="-0.33" transform="matrix(0.707711 -0.706502 0.707711 0.706502 -18.3288 219)" stroke="#909BCB" stroke-opacity="0.5" stroke-width="0.66"/>
<line y1="-0.33" x2="203.821" y2="-0.33" transform="matrix(0.707711 -0.706502 0.707711 0.706502 -14.6301 219)" stroke="#909BCB" stroke-opacity="0.5" stroke-width="0.66"/>
<line y1="-0.33" x2="203.821" y2="-0.33" transform="matrix(0.707711 -0.706502 0.707711 0.706502 -10.9315 219)" stroke="#909BCB" stroke-opacity="0.5" stroke-width="0.66"/>
<line y1="-0.33" x2="203.821" y2="-0.33" transform="matrix(0.707711 -0.706502 0.707711 0.706502 -7.23288 219)" stroke="#909BCB" stroke-opacity="0.5" stroke-width="0.66"/>
<line y1="-0.33" x2="203.821" y2="-0.33" transform="matrix(0.707711 -0.706502 0.707711 0.706502 -3.53424 219)" stroke="#909BCB" stroke-opacity="0.5" stroke-width="0.66"/>
<line y1="-0.33" x2="203.821" y2="-0.33" transform="matrix(0.707711 -0.706502 0.707711 0.706502 0.164368 219)" stroke="#909BCB" stroke-opacity="0.5" stroke-width="0.66"/>
<line y1="-0.33" x2="203.821" y2="-0.33" transform="matrix(0.707711 -0.706502 0.707711 0.706502 3.86301 219)" stroke="#909BCB" stroke-opacity="0.5" stroke-width="0.66"/>
<line y1="-0.33" x2="203.821" y2="-0.33" transform="matrix(0.707711 -0.706502 0.707711 0.706502 7.56165 219)" stroke="#909BCB" stroke-opacity="0.5" stroke-width="0.66"/>
<line y1="-0.33" x2="203.821" y2="-0.33" transform="matrix(0.707711 -0.706502 0.707711 0.706502 11.2603 219)" stroke="#909BCB" stroke-opacity="0.5" stroke-width="0.66"/>
<line y1="-0.33" x2="203.821" y2="-0.33" transform="matrix(0.707711 -0.706502 0.707711 0.706502 14.9589 219)" stroke="#909BCB" stroke-opacity="0.5" stroke-width="0.66"/>
<line y1="-0.33" x2="203.821" y2="-0.33" transform="matrix(0.707711 -0.706502 0.707711 0.706502 18.6575 219)" stroke="#909BCB" stroke-opacity="0.5" stroke-width="0.66"/>
<line y1="-0.33" x2="203.821" y2="-0.33" transform="matrix(0.707711 -0.706502 0.707711 0.706502 22.3562 219)" stroke="#909BCB" stroke-opacity="0.5" stroke-width="0.66"/>
<line y1="-0.33" x2="203.821" y2="-0.33" transform="matrix(0.707711 -0.706502 0.707711 0.706502 26.0548 219)" stroke="#909BCB" stroke-opacity="0.5" stroke-width="0.66"/>
<line y1="-0.33" x2="203.821" y2="-0.33" transform="matrix(0.707711 -0.706502 0.707711 0.706502 29.7534 219)" stroke="#909BCB" stroke-opacity="0.5" stroke-width="0.66"/>
<line y1="-0.33" x2="203.821" y2="-0.33" transform="matrix(0.707711 -0.706502 0.707711 0.706502 33.4521 219)" stroke="#909BCB" stroke-opacity="0.5" stroke-width="0.66"/>
<line y1="-0.33" x2="203.821" y2="-0.33" transform="matrix(0.707711 -0.706502 0.707711 0.706502 37.1507 219)" stroke="#909BCB" stroke-opacity="0.5" stroke-width="0.66"/>
<line y1="-0.33" x2="203.821" y2="-0.33" transform="matrix(0.707711 -0.706502 0.707711 0.706502 40.8493 219)" stroke="#909BCB" stroke-opacity="0.5" stroke-width="0.66"/>
<line y1="-0.33" x2="203.821" y2="-0.33" transform="matrix(0.707711 -0.706502 0.707711 0.706502 44.5479 219)" stroke="#909BCB" stroke-opacity="0.5" stroke-width="0.66"/>
<line y1="-0.33" x2="203.821" y2="-0.33" transform="matrix(0.707711 -0.706502 0.707711 0.706502 48.2466 219)" stroke="#909BCB" stroke-opacity="0.5" stroke-width="0.66"/>
<line y1="-0.33" x2="203.821" y2="-0.33" transform="matrix(0.707711 -0.706502 0.707711 0.706502 51.9452 219)" stroke="#909BCB" stroke-opacity="0.5" stroke-width="0.66"/>
</g>
<mask id="mask4_26_6474" style="mask-type:alpha" maskUnits="userSpaceOnUse" x="10" y="148" width="45" height="8">
<rect x="10" y="148" width="45" height="8" rx="4" fill="#D9D9D9"/>
</mask>
<g mask="url(#mask4_26_6474)">
<line y1="-0.33" x2="203.821" y2="-0.33" transform="matrix(0.707711 -0.706502 0.707711 0.706502 -96 251)" stroke="#909BCB" stroke-opacity="0.5" stroke-width="0.66"/>
<line y1="-0.33" x2="203.821" y2="-0.33" transform="matrix(0.707711 -0.706502 0.707711 0.706502 -92.3014 251)" stroke="#909BCB" stroke-opacity="0.5" stroke-width="0.66"/>
<line y1="-0.33" x2="203.821" y2="-0.33" transform="matrix(0.707711 -0.706502 0.707711 0.706502 -88.6028 251)" stroke="#909BCB" stroke-opacity="0.5" stroke-width="0.66"/>
<line y1="-0.33" x2="203.821" y2="-0.33" transform="matrix(0.707711 -0.706502 0.707711 0.706502 -84.9041 251)" stroke="#909BCB" stroke-opacity="0.5" stroke-width="0.66"/>
<line y1="-0.33" x2="203.821" y2="-0.33" transform="matrix(0.707711 -0.706502 0.707711 0.706502 -81.2055 251)" stroke="#909BCB" stroke-opacity="0.5" stroke-width="0.66"/>
<line y1="-0.33" x2="203.821" y2="-0.33" transform="matrix(0.707711 -0.706502 0.707711 0.706502 -77.5068 251)" stroke="#909BCB" stroke-opacity="0.5" stroke-width="0.66"/>
<line y1="-0.33" x2="203.821" y2="-0.33" transform="matrix(0.707711 -0.706502 0.707711 0.706502 -73.8082 251)" stroke="#909BCB" stroke-opacity="0.5" stroke-width="0.66"/>
<line y1="-0.33" x2="203.821" y2="-0.33" transform="matrix(0.707711 -0.706502 0.707711 0.706502 -70.1096 251)" stroke="#909BCB" stroke-opacity="0.5" stroke-width="0.66"/>
<line y1="-0.33" x2="203.821" y2="-0.33" transform="matrix(0.707711 -0.706502 0.707711 0.706502 -66.4109 251)" stroke="#909BCB" stroke-opacity="0.5" stroke-width="0.66"/>
<line y1="-0.33" x2="203.821" y2="-0.33" transform="matrix(0.707711 -0.706502 0.707711 0.706502 -62.7123 251)" stroke="#909BCB" stroke-opacity="0.5" stroke-width="0.66"/>
<line y1="-0.33" x2="203.821" y2="-0.33" transform="matrix(0.707711 -0.706502 0.707711 0.706502 -59.0137 251)" stroke="#909BCB" stroke-opacity="0.5" stroke-width="0.66"/>
<line y1="-0.33" x2="203.821" y2="-0.33" transform="matrix(0.707711 -0.706502 0.707711 0.706502 -55.3151 251)" stroke="#909BCB" stroke-opacity="0.5" stroke-width="0.66"/>
<line y1="-0.33" x2="203.821" y2="-0.33" transform="matrix(0.707711 -0.706502 0.707711 0.706502 -51.6164 251)" stroke="#909BCB" stroke-opacity="0.5" stroke-width="0.66"/>
<line y1="-0.33" x2="203.821" y2="-0.33" transform="matrix(0.707711 -0.706502 0.707711 0.706502 -47.9178 251)" stroke="#909BCB" stroke-opacity="0.5" stroke-width="0.66"/>
<line y1="-0.33" x2="203.821" y2="-0.33" transform="matrix(0.707711 -0.706502 0.707711 0.706502 -44.2192 251)" stroke="#909BCB" stroke-opacity="0.5" stroke-width="0.66"/>
<line y1="-0.33" x2="203.821" y2="-0.33" transform="matrix(0.707711 -0.706502 0.707711 0.706502 -40.5205 251)" stroke="#909BCB" stroke-opacity="0.5" stroke-width="0.66"/>
<line y1="-0.33" x2="203.821" y2="-0.33" transform="matrix(0.707711 -0.706502 0.707711 0.706502 -36.8219 251)" stroke="#909BCB" stroke-opacity="0.5" stroke-width="0.66"/>
<line y1="-0.33" x2="203.821" y2="-0.33" transform="matrix(0.707711 -0.706502 0.707711 0.706502 -33.1233 251)" stroke="#909BCB" stroke-opacity="0.5" stroke-width="0.66"/>
<line y1="-0.33" x2="203.821" y2="-0.33" transform="matrix(0.707711 -0.706502 0.707711 0.706502 -29.4247 251)" stroke="#909BCB" stroke-opacity="0.5" stroke-width="0.66"/>
<line y1="-0.33" x2="203.821" y2="-0.33" transform="matrix(0.707711 -0.706502 0.707711 0.706502 -25.726 251)" stroke="#909BCB" stroke-opacity="0.5" stroke-width="0.66"/>
<line y1="-0.33" x2="203.821" y2="-0.33" transform="matrix(0.707711 -0.706502 0.707711 0.706502 -22.0274 251)" stroke="#909BCB" stroke-opacity="0.5" stroke-width="0.66"/>
<line y1="-0.33" x2="203.821" y2="-0.33" transform="matrix(0.707711 -0.706502 0.707711 0.706502 -18.3288 251)" stroke="#909BCB" stroke-opacity="0.5" stroke-width="0.66"/>
<line y1="-0.33" x2="203.821" y2="-0.33" transform="matrix(0.707711 -0.706502 0.707711 0.706502 -14.6301 251)" stroke="#909BCB" stroke-opacity="0.5" stroke-width="0.66"/>
<line y1="-0.33" x2="203.821" y2="-0.33" transform="matrix(0.707711 -0.706502 0.707711 0.706502 -10.9315 251)" stroke="#909BCB" stroke-opacity="0.5" stroke-width="0.66"/>
<line y1="-0.33" x2="203.821" y2="-0.33" transform="matrix(0.707711 -0.706502 0.707711 0.706502 -7.23288 251)" stroke="#909BCB" stroke-opacity="0.5" stroke-width="0.66"/>
<line y1="-0.33" x2="203.821" y2="-0.33" transform="matrix(0.707711 -0.706502 0.707711 0.706502 -3.53424 251)" stroke="#909BCB" stroke-opacity="0.5" stroke-width="0.66"/>
<line y1="-0.33" x2="203.821" y2="-0.33" transform="matrix(0.707711 -0.706502 0.707711 0.706502 0.164368 251)" stroke="#909BCB" stroke-opacity="0.5" stroke-width="0.66"/>
<line y1="-0.33" x2="203.821" y2="-0.33" transform="matrix(0.707711 -0.706502 0.707711 0.706502 3.86301 251)" stroke="#909BCB" stroke-opacity="0.5" stroke-width="0.66"/>
<line y1="-0.33" x2="203.821" y2="-0.33" transform="matrix(0.707711 -0.706502 0.707711 0.706502 7.56165 251)" stroke="#909BCB" stroke-opacity="0.5" stroke-width="0.66"/>
<line y1="-0.33" x2="203.821" y2="-0.33" transform="matrix(0.707711 -0.706502 0.707711 0.706502 11.2603 251)" stroke="#909BCB" stroke-opacity="0.5" stroke-width="0.66"/>
<line y1="-0.33" x2="203.821" y2="-0.33" transform="matrix(0.707711 -0.706502 0.707711 0.706502 14.9589 251)" stroke="#909BCB" stroke-opacity="0.5" stroke-width="0.66"/>
<line y1="-0.33" x2="203.821" y2="-0.33" transform="matrix(0.707711 -0.706502 0.707711 0.706502 18.6575 251)" stroke="#909BCB" stroke-opacity="0.5" stroke-width="0.66"/>
<line y1="-0.33" x2="203.821" y2="-0.33" transform="matrix(0.707711 -0.706502 0.707711 0.706502 22.3562 251)" stroke="#909BCB" stroke-opacity="0.5" stroke-width="0.66"/>
<line y1="-0.33" x2="203.821" y2="-0.33" transform="matrix(0.707711 -0.706502 0.707711 0.706502 26.0548 251)" stroke="#909BCB" stroke-opacity="0.5" stroke-width="0.66"/>
<line y1="-0.33" x2="203.821" y2="-0.33" transform="matrix(0.707711 -0.706502 0.707711 0.706502 29.7534 251)" stroke="#909BCB" stroke-opacity="0.5" stroke-width="0.66"/>
<line y1="-0.33" x2="203.821" y2="-0.33" transform="matrix(0.707711 -0.706502 0.707711 0.706502 33.4521 251)" stroke="#909BCB" stroke-opacity="0.5" stroke-width="0.66"/>
<line y1="-0.33" x2="203.821" y2="-0.33" transform="matrix(0.707711 -0.706502 0.707711 0.706502 37.1507 251)" stroke="#909BCB" stroke-opacity="0.5" stroke-width="0.66"/>
<line y1="-0.33" x2="203.821" y2="-0.33" transform="matrix(0.707711 -0.706502 0.707711 0.706502 40.8493 251)" stroke="#909BCB" stroke-opacity="0.5" stroke-width="0.66"/>
<line y1="-0.33" x2="203.821" y2="-0.33" transform="matrix(0.707711 -0.706502 0.707711 0.706502 44.5479 251)" stroke="#909BCB" stroke-opacity="0.5" stroke-width="0.66"/>
<line y1="-0.33" x2="203.821" y2="-0.33" transform="matrix(0.707711 -0.706502 0.707711 0.706502 48.2466 251)" stroke="#909BCB" stroke-opacity="0.5" stroke-width="0.66"/>
<line y1="-0.33" x2="203.821" y2="-0.33" transform="matrix(0.707711 -0.706502 0.707711 0.706502 51.9452 251)" stroke="#909BCB" stroke-opacity="0.5" stroke-width="0.66"/>
</g>
<mask id="mask5_26_6474" style="mask-type:alpha" maskUnits="userSpaceOnUse" x="10" y="180" width="45" height="8">
<rect x="10" y="180" width="45" height="8" rx="4" fill="#D9D9D9"/>
</mask>
<g mask="url(#mask5_26_6474)">
<line y1="-0.33" x2="203.821" y2="-0.33" transform="matrix(0.707711 -0.706502 0.707711 0.706502 -96 283)" stroke="#909BCB" stroke-opacity="0.5" stroke-width="0.66"/>
<line y1="-0.33" x2="203.821" y2="-0.33" transform="matrix(0.707711 -0.706502 0.707711 0.706502 -92.3014 283)" stroke="#909BCB" stroke-opacity="0.5" stroke-width="0.66"/>
<line y1="-0.33" x2="203.821" y2="-0.33" transform="matrix(0.707711 -0.706502 0.707711 0.706502 -88.6028 283)" stroke="#909BCB" stroke-opacity="0.5" stroke-width="0.66"/>
<line y1="-0.33" x2="203.821" y2="-0.33" transform="matrix(0.707711 -0.706502 0.707711 0.706502 -84.9041 283)" stroke="#909BCB" stroke-opacity="0.5" stroke-width="0.66"/>
<line y1="-0.33" x2="203.821" y2="-0.33" transform="matrix(0.707711 -0.706502 0.707711 0.706502 -81.2055 283)" stroke="#909BCB" stroke-opacity="0.5" stroke-width="0.66"/>
<line y1="-0.33" x2="203.821" y2="-0.33" transform="matrix(0.707711 -0.706502 0.707711 0.706502 -77.5068 283)" stroke="#909BCB" stroke-opacity="0.5" stroke-width="0.66"/>
<line y1="-0.33" x2="203.821" y2="-0.33" transform="matrix(0.707711 -0.706502 0.707711 0.706502 -73.8082 283)" stroke="#909BCB" stroke-opacity="0.5" stroke-width="0.66"/>
<line y1="-0.33" x2="203.821" y2="-0.33" transform="matrix(0.707711 -0.706502 0.707711 0.706502 -70.1096 283)" stroke="#909BCB" stroke-opacity="0.5" stroke-width="0.66"/>
<line y1="-0.33" x2="203.821" y2="-0.33" transform="matrix(0.707711 -0.706502 0.707711 0.706502 -66.4109 283)" stroke="#909BCB" stroke-opacity="0.5" stroke-width="0.66"/>
<line y1="-0.33" x2="203.821" y2="-0.33" transform="matrix(0.707711 -0.706502 0.707711 0.706502 -62.7123 283)" stroke="#909BCB" stroke-opacity="0.5" stroke-width="0.66"/>
<line y1="-0.33" x2="203.821" y2="-0.33" transform="matrix(0.707711 -0.706502 0.707711 0.706502 -59.0137 283)" stroke="#909BCB" stroke-opacity="0.5" stroke-width="0.66"/>
<line y1="-0.33" x2="203.821" y2="-0.33" transform="matrix(0.707711 -0.706502 0.707711 0.706502 -55.3151 283)" stroke="#909BCB" stroke-opacity="0.5" stroke-width="0.66"/>
<line y1="-0.33" x2="203.821" y2="-0.33" transform="matrix(0.707711 -0.706502 0.707711 0.706502 -51.6164 283)" stroke="#909BCB" stroke-opacity="0.5" stroke-width="0.66"/>
<line y1="-0.33" x2="203.821" y2="-0.33" transform="matrix(0.707711 -0.706502 0.707711 0.706502 -47.9178 283)" stroke="#909BCB" stroke-opacity="0.5" stroke-width="0.66"/>
<line y1="-0.33" x2="203.821" y2="-0.33" transform="matrix(0.707711 -0.706502 0.707711 0.706502 -44.2192 283)" stroke="#909BCB" stroke-opacity="0.5" stroke-width="0.66"/>
<line y1="-0.33" x2="203.821" y2="-0.33" transform="matrix(0.707711 -0.706502 0.707711 0.706502 -40.5205 283)" stroke="#909BCB" stroke-opacity="0.5" stroke-width="0.66"/>
<line y1="-0.33" x2="203.821" y2="-0.33" transform="matrix(0.707711 -0.706502 0.707711 0.706502 -36.8219 283)" stroke="#909BCB" stroke-opacity="0.5" stroke-width="0.66"/>
<line y1="-0.33" x2="203.821" y2="-0.33" transform="matrix(0.707711 -0.706502 0.707711 0.706502 -33.1233 283)" stroke="#909BCB" stroke-opacity="0.5" stroke-width="0.66"/>
<line y1="-0.33" x2="203.821" y2="-0.33" transform="matrix(0.707711 -0.706502 0.707711 0.706502 -29.4247 283)" stroke="#909BCB" stroke-opacity="0.5" stroke-width="0.66"/>
<line y1="-0.33" x2="203.821" y2="-0.33" transform="matrix(0.707711 -0.706502 0.707711 0.706502 -25.726 283)" stroke="#909BCB" stroke-opacity="0.5" stroke-width="0.66"/>
<line y1="-0.33" x2="203.821" y2="-0.33" transform="matrix(0.707711 -0.706502 0.707711 0.706502 -22.0274 283)" stroke="#909BCB" stroke-opacity="0.5" stroke-width="0.66"/>
<line y1="-0.33" x2="203.821" y2="-0.33" transform="matrix(0.707711 -0.706502 0.707711 0.706502 -18.3288 283)" stroke="#909BCB" stroke-opacity="0.5" stroke-width="0.66"/>
<line y1="-0.33" x2="203.821" y2="-0.33" transform="matrix(0.707711 -0.706502 0.707711 0.706502 -14.6301 283)" stroke="#909BCB" stroke-opacity="0.5" stroke-width="0.66"/>
<line y1="-0.33" x2="203.821" y2="-0.33" transform="matrix(0.707711 -0.706502 0.707711 0.706502 -10.9315 283)" stroke="#909BCB" stroke-opacity="0.5" stroke-width="0.66"/>
<line y1="-0.33" x2="203.821" y2="-0.33" transform="matrix(0.707711 -0.706502 0.707711 0.706502 -7.23288 283)" stroke="#909BCB" stroke-opacity="0.5" stroke-width="0.66"/>
<line y1="-0.33" x2="203.821" y2="-0.33" transform="matrix(0.707711 -0.706502 0.707711 0.706502 -3.53424 283)" stroke="#909BCB" stroke-opacity="0.5" stroke-width="0.66"/>
<line y1="-0.33" x2="203.821" y2="-0.33" transform="matrix(0.707711 -0.706502 0.707711 0.706502 0.164368 283)" stroke="#909BCB" stroke-opacity="0.5" stroke-width="0.66"/>
<line y1="-0.33" x2="203.821" y2="-0.33" transform="matrix(0.707711 -0.706502 0.707711 0.706502 3.86301 283)" stroke="#909BCB" stroke-opacity="0.5" stroke-width="0.66"/>
<line y1="-0.33" x2="203.821" y2="-0.33" transform="matrix(0.707711 -0.706502 0.707711 0.706502 7.56165 283)" stroke="#909BCB" stroke-opacity="0.5" stroke-width="0.66"/>
<line y1="-0.33" x2="203.821" y2="-0.33" transform="matrix(0.707711 -0.706502 0.707711 0.706502 11.2603 283)" stroke="#909BCB" stroke-opacity="0.5" stroke-width="0.66"/>
<line y1="-0.33" x2="203.821" y2="-0.33" transform="matrix(0.707711 -0.706502 0.707711 0.706502 14.9589 283)" stroke="#909BCB" stroke-opacity="0.5" stroke-width="0.66"/>
<line y1="-0.33" x2="203.821" y2="-0.33" transform="matrix(0.707711 -0.706502 0.707711 0.706502 18.6575 283)" stroke="#909BCB" stroke-opacity="0.5" stroke-width="0.66"/>
<line y1="-0.33" x2="203.821" y2="-0.33" transform="matrix(0.707711 -0.706502 0.707711 0.706502 22.3562 283)" stroke="#909BCB" stroke-opacity="0.5" stroke-width="0.66"/>
<line y1="-0.33" x2="203.821" y2="-0.33" transform="matrix(0.707711 -0.706502 0.707711 0.706502 26.0548 283)" stroke="#909BCB" stroke-opacity="0.5" stroke-width="0.66"/>
<line y1="-0.33" x2="203.821" y2="-0.33" transform="matrix(0.707711 -0.706502 0.707711 0.706502 29.7534 283)" stroke="#909BCB" stroke-opacity="0.5" stroke-width="0.66"/>
<line y1="-0.33" x2="203.821" y2="-0.33" transform="matrix(0.707711 -0.706502 0.707711 0.706502 33.4521 283)" stroke="#909BCB" stroke-opacity="0.5" stroke-width="0.66"/>
<line y1="-0.33" x2="203.821" y2="-0.33" transform="matrix(0.707711 -0.706502 0.707711 0.706502 37.1507 283)" stroke="#909BCB" stroke-opacity="0.5" stroke-width="0.66"/>
<line y1="-0.33" x2="203.821" y2="-0.33" transform="matrix(0.707711 -0.706502 0.707711 0.706502 40.8493 283)" stroke="#909BCB" stroke-opacity="0.5" stroke-width="0.66"/>
<line y1="-0.33" x2="203.821" y2="-0.33" transform="matrix(0.707711 -0.706502 0.707711 0.706502 44.5479 283)" stroke="#909BCB" stroke-opacity="0.5" stroke-width="0.66"/>
<line y1="-0.33" x2="203.821" y2="-0.33" transform="matrix(0.707711 -0.706502 0.707711 0.706502 48.2466 283)" stroke="#909BCB" stroke-opacity="0.5" stroke-width="0.66"/>
<line y1="-0.33" x2="203.821" y2="-0.33" transform="matrix(0.707711 -0.706502 0.707711 0.706502 51.9452 283)" stroke="#909BCB" stroke-opacity="0.5" stroke-width="0.66"/>
</g>
<mask id="mask6_26_6474" style="mask-type:alpha" maskUnits="userSpaceOnUse" x="88" y="10" width="102" height="102">
<path fill-rule="evenodd" clip-rule="evenodd" d="M155.165 85.6295C148.151 90.8861 139.439 94 130 94C106.804 94 88 75.196 88 52C88 28.804 106.804 10 130 10C153.196 10 172 28.804 172 52C172 61.4393 168.886 70.1513 163.63 77.1648C164.415 77.4821 165.152 77.9592 165.789 78.5962L187.709 100.517C190.247 103.055 190.247 107.17 187.709 109.709C185.17 112.247 181.055 112.247 178.517 109.709L156.596 87.7886C155.959 87.1516 155.482 86.4153 155.165 85.6295ZM161 52C161 69.1208 147.121 83 130 83C112.879 83 99 69.1208 99 52C99 34.8792 112.879 21 130 21C147.121 21 161 34.8792 161 52Z" fill="#D9D9D9"/>
</mask>
<g mask="url(#mask6_26_6474)">
<line y1="-0.33" x2="203.821" y2="-0.33" transform="matrix(0.707711 -0.706502 0.707711 0.706502 -51 117)" stroke="#909BCB" stroke-width="0.66"/>
<line y1="-0.33" x2="203.821" y2="-0.33" transform="matrix(0.707711 -0.706502 0.707711 0.706502 -47.3014 117)" stroke="#909BCB" stroke-width="0.66"/>
<line y1="-0.33" x2="203.821" y2="-0.33" transform="matrix(0.707711 -0.706502 0.707711 0.706502 -43.6028 117)" stroke="#909BCB" stroke-width="0.66"/>
<line y1="-0.33" x2="203.821" y2="-0.33" transform="matrix(0.707711 -0.706502 0.707711 0.706502 -39.9041 117)" stroke="#909BCB" stroke-width="0.66"/>
<line y1="-0.33" x2="203.821" y2="-0.33" transform="matrix(0.707711 -0.706502 0.707711 0.706502 -36.2055 117)" stroke="#909BCB" stroke-width="0.66"/>
<line y1="-0.33" x2="203.821" y2="-0.33" transform="matrix(0.707711 -0.706502 0.707711 0.706502 -32.5068 117)" stroke="#909BCB" stroke-width="0.66"/>
<line y1="-0.33" x2="203.821" y2="-0.33" transform="matrix(0.707711 -0.706502 0.707711 0.706502 -28.8082 117)" stroke="#909BCB" stroke-width="0.66"/>
<line y1="-0.33" x2="203.821" y2="-0.33" transform="matrix(0.707711 -0.706502 0.707711 0.706502 -25.1096 117)" stroke="#909BCB" stroke-width="0.66"/>
<line y1="-0.33" x2="203.821" y2="-0.33" transform="matrix(0.707711 -0.706502 0.707711 0.706502 -21.4109 117)" stroke="#909BCB" stroke-width="0.66"/>
<line y1="-0.33" x2="203.821" y2="-0.33" transform="matrix(0.707711 -0.706502 0.707711 0.706502 -17.7123 117)" stroke="#909BCB" stroke-width="0.66"/>
<line y1="-0.33" x2="203.821" y2="-0.33" transform="matrix(0.707711 -0.706502 0.707711 0.706502 -14.0137 117)" stroke="#909BCB" stroke-width="0.66"/>
<line y1="-0.33" x2="203.821" y2="-0.33" transform="matrix(0.707711 -0.706502 0.707711 0.706502 -10.3151 117)" stroke="#909BCB" stroke-width="0.66"/>
<line y1="-0.33" x2="203.821" y2="-0.33" transform="matrix(0.707711 -0.706502 0.707711 0.706502 -6.61642 117)" stroke="#909BCB" stroke-width="0.66"/>
<line y1="-0.33" x2="203.821" y2="-0.33" transform="matrix(0.707711 -0.706502 0.707711 0.706502 -2.91782 117)" stroke="#909BCB" stroke-width="0.66"/>
<line y1="-0.33" x2="203.821" y2="-0.33" transform="matrix(0.707711 -0.706502 0.707711 0.706502 0.780823 117)" stroke="#909BCB" stroke-width="0.66"/>
<line y1="-0.33" x2="203.821" y2="-0.33" transform="matrix(0.707711 -0.706502 0.707711 0.706502 4.47946 117)" stroke="#909BCB" stroke-width="0.66"/>
<line y1="-0.33" x2="203.821" y2="-0.33" transform="matrix(0.707711 -0.706502 0.707711 0.706502 8.17807 117)" stroke="#909BCB" stroke-width="0.66"/>
<line y1="-0.33" x2="203.821" y2="-0.33" transform="matrix(0.707711 -0.706502 0.707711 0.706502 11.8767 117)" stroke="#909BCB" stroke-width="0.66"/>
<line y1="-0.33" x2="203.821" y2="-0.33" transform="matrix(0.707711 -0.706502 0.707711 0.706502 15.5753 117)" stroke="#909BCB" stroke-width="0.66"/>
<line y1="-0.33" x2="203.821" y2="-0.33" transform="matrix(0.707711 -0.706502 0.707711 0.706502 19.274 117)" stroke="#909BCB" stroke-width="0.66"/>
<line y1="-0.33" x2="203.821" y2="-0.33" transform="matrix(0.707711 -0.706502 0.707711 0.706502 22.9726 117)" stroke="#909BCB" stroke-width="0.66"/>
<line y1="-0.33" x2="203.821" y2="-0.33" transform="matrix(0.707711 -0.706502 0.707711 0.706502 26.6712 117)" stroke="#909BCB" stroke-width="0.66"/>
<line y1="-0.33" x2="203.821" y2="-0.33" transform="matrix(0.707711 -0.706502 0.707711 0.706502 30.3699 117)" stroke="#909BCB" stroke-width="0.66"/>
<line y1="-0.33" x2="203.821" y2="-0.33" transform="matrix(0.707711 -0.706502 0.707711 0.706502 34.0685 117)" stroke="#909BCB" stroke-width="0.66"/>
<line y1="-0.33" x2="203.821" y2="-0.33" transform="matrix(0.707711 -0.706502 0.707711 0.706502 37.7671 117)" stroke="#909BCB" stroke-width="0.66"/>
<line y1="-0.33" x2="203.821" y2="-0.33" transform="matrix(0.707711 -0.706502 0.707711 0.706502 41.4658 117)" stroke="#909BCB" stroke-width="0.66"/>
<line y1="-0.33" x2="203.821" y2="-0.33" transform="matrix(0.707711 -0.706502 0.707711 0.706502 45.1644 117)" stroke="#909BCB" stroke-width="0.66"/>
<line y1="-0.33" x2="203.821" y2="-0.33" transform="matrix(0.707711 -0.706502 0.707711 0.706502 48.863 117)" stroke="#909BCB" stroke-width="0.66"/>
<line y1="-0.33" x2="203.821" y2="-0.33" transform="matrix(0.707711 -0.706502 0.707711 0.706502 52.5616 117)" stroke="#909BCB" stroke-width="0.66"/>
<line y1="-0.33" x2="203.821" y2="-0.33" transform="matrix(0.707711 -0.706502 0.707711 0.706502 56.2603 117)" stroke="#909BCB" stroke-width="0.66"/>
<line y1="-0.33" x2="203.821" y2="-0.33" transform="matrix(0.707711 -0.706502 0.707711 0.706502 59.9589 117)" stroke="#909BCB" stroke-width="0.66"/>
<line y1="-0.33" x2="203.821" y2="-0.33" transform="matrix(0.707711 -0.706502 0.707711 0.706502 63.6575 117)" stroke="#909BCB" stroke-width="0.66"/>
<line y1="-0.33" x2="203.821" y2="-0.33" transform="matrix(0.707711 -0.706502 0.707711 0.706502 67.3562 117)" stroke="#909BCB" stroke-width="0.66"/>
<line y1="-0.33" x2="203.821" y2="-0.33" transform="matrix(0.707711 -0.706502 0.707711 0.706502 71.0548 117)" stroke="#909BCB" stroke-width="0.66"/>
<line y1="-0.33" x2="203.821" y2="-0.33" transform="matrix(0.707711 -0.706502 0.707711 0.706502 74.7534 117)" stroke="#909BCB" stroke-width="0.66"/>
<line y1="-0.33" x2="203.821" y2="-0.33" transform="matrix(0.707711 -0.706502 0.707711 0.706502 78.4521 117)" stroke="#909BCB" stroke-width="0.66"/>
<line y1="-0.33" x2="203.821" y2="-0.33" transform="matrix(0.707711 -0.706502 0.707711 0.706502 82.1507 117)" stroke="#909BCB" stroke-width="0.66"/>
<line y1="-0.33" x2="203.821" y2="-0.33" transform="matrix(0.707711 -0.706502 0.707711 0.706502 85.8493 117)" stroke="#909BCB" stroke-width="0.66"/>
<line y1="-0.33" x2="203.821" y2="-0.33" transform="matrix(0.707711 -0.706502 0.707711 0.706502 89.5479 117)" stroke="#909BCB" stroke-width="0.66"/>
<line y1="-0.33" x2="203.821" y2="-0.33" transform="matrix(0.707711 -0.706502 0.707711 0.706502 93.2466 117)" stroke="#909BCB" stroke-width="0.66"/>
<line y1="-0.33" x2="203.821" y2="-0.33" transform="matrix(0.707711 -0.706502 0.707711 0.706502 96.9452 117)" stroke="#909BCB" stroke-width="0.66"/>
<line y1="-0.33" x2="203.821" y2="-0.33" transform="matrix(0.707711 -0.706502 0.707711 0.706502 100.644 117)" stroke="#909BCB" stroke-width="0.66"/>
<line y1="-0.33" x2="203.821" y2="-0.33" transform="matrix(0.707711 -0.706502 0.707711 0.706502 104.342 117)" stroke="#909BCB" stroke-width="0.66"/>
<line y1="-0.33" x2="203.821" y2="-0.33" transform="matrix(0.707711 -0.706502 0.707711 0.706502 108.041 117)" stroke="#909BCB" stroke-width="0.66"/>
<line y1="-0.33" x2="203.821" y2="-0.33" transform="matrix(0.707711 -0.706502 0.707711 0.706502 111.74 117)" stroke="#909BCB" stroke-width="0.66"/>
<line y1="-0.33" x2="203.821" y2="-0.33" transform="matrix(0.707711 -0.706502 0.707711 0.706502 115.438 117)" stroke="#909BCB" stroke-width="0.66"/>
<line y1="-0.33" x2="203.821" y2="-0.33" transform="matrix(0.707711 -0.706502 0.707711 0.706502 119.137 117)" stroke="#909BCB" stroke-width="0.66"/>
<line y1="-0.33" x2="203.821" y2="-0.33" transform="matrix(0.707711 -0.706502 0.707711 0.706502 122.836 117)" stroke="#909BCB" stroke-width="0.66"/>
<line y1="-0.33" x2="203.821" y2="-0.33" transform="matrix(0.707711 -0.706502 0.707711 0.706502 126.534 117)" stroke="#909BCB" stroke-width="0.66"/>
<line y1="-0.33" x2="203.821" y2="-0.33" transform="matrix(0.707711 -0.706502 0.707711 0.706502 130.233 117)" stroke="#909BCB" stroke-width="0.66"/>
<line y1="-0.33" x2="203.821" y2="-0.33" transform="matrix(0.707711 -0.706502 0.707711 0.706502 133.932 117)" stroke="#909BCB" stroke-width="0.66"/>
<line y1="-0.33" x2="203.821" y2="-0.33" transform="matrix(0.707711 -0.706502 0.707711 0.706502 137.63 117)" stroke="#909BCB" stroke-width="0.66"/>
<line y1="-0.33" x2="203.821" y2="-0.33" transform="matrix(0.707711 -0.706502 0.707711 0.706502 141.329 117)" stroke="#909BCB" stroke-width="0.66"/>
<line y1="-0.33" x2="203.821" y2="-0.33" transform="matrix(0.707711 -0.706502 0.707711 0.706502 145.027 117)" stroke="#909BCB" stroke-width="0.66"/>
<line y1="-0.33" x2="203.821" y2="-0.33" transform="matrix(0.707711 -0.706502 0.707711 0.706502 148.726 117)" stroke="#909BCB" stroke-width="0.66"/>
<line y1="-0.33" x2="203.821" y2="-0.33" transform="matrix(0.707711 -0.706502 0.707711 0.706502 152.425 117)" stroke="#909BCB" stroke-width="0.66"/>
<line y1="-0.33" x2="203.821" y2="-0.33" transform="matrix(0.707711 -0.706502 0.707711 0.706502 156.123 117)" stroke="#909BCB" stroke-width="0.66"/>
<line y1="-0.33" x2="203.821" y2="-0.33" transform="matrix(0.707711 -0.706502 0.707711 0.706502 159.822 117)" stroke="#909BCB" stroke-width="0.66"/>
<line y1="-0.33" x2="203.821" y2="-0.33" transform="matrix(0.707711 -0.706502 0.707711 0.706502 163.521 117)" stroke="#909BCB" stroke-width="0.66"/>
<line y1="-0.33" x2="203.821" y2="-0.33" transform="matrix(0.707711 -0.706502 0.707711 0.706502 167.219 117)" stroke="#909BCB" stroke-width="0.66"/>
<line y1="-0.33" x2="203.821" y2="-0.33" transform="matrix(0.707711 -0.706502 0.707711 0.706502 170.918 117)" stroke="#909BCB" stroke-width="0.66"/>
<line y1="-0.33" x2="203.821" y2="-0.33" transform="matrix(0.707711 -0.706502 0.707711 0.706502 174.616 117)" stroke="#909BCB" stroke-width="0.66"/>
<line y1="-0.33" x2="203.821" y2="-0.33" transform="matrix(0.707711 -0.706502 0.707711 0.706502 178.315 117)" stroke="#909BCB" stroke-width="0.66"/>
<line y1="-0.33" x2="203.821" y2="-0.33" transform="matrix(0.707711 -0.706502 0.707711 0.706502 182.014 117)" stroke="#909BCB" stroke-width="0.66"/>
<line y1="-0.33" x2="203.821" y2="-0.33" transform="matrix(0.707711 -0.706502 0.707711 0.706502 185.712 117)" stroke="#909BCB" stroke-width="0.66"/>
<line y1="-0.33" x2="203.821" y2="-0.33" transform="matrix(0.707711 -0.706502 0.707711 0.706502 189.411 117)" stroke="#909BCB" stroke-width="0.66"/>
</g>
</svg>
